<svg width="160" height="44" viewBox="0 0 160 44" fill="none" xmlns="http://www.w3.org/2000/svg">
<g clip-path="url(#clip0_1435_1717)">
<path d="M50.8355 23.1474L46.6773 27.2582L35.7009 16.444C34.8393 15.5922 34.8393 14.1849 35.7009 13.3331L38.2858 10.7776C39.1474 9.92584 40.571 9.92584 41.47 10.7776L50.8355 20.0364C51.6972 20.8882 51.6972 22.2955 50.8355 23.1474Z" fill="url(#paint0_linear_1435_1717)"/>
<path d="M11.2771 19.0364L13.862 16.481C14.7236 15.6292 16.1471 15.6292 17.0462 16.481L26.4117 25.7398C27.2733 26.5916 27.2733 27.9989 26.4117 28.8878L23.8268 31.4432C22.9652 32.295 21.5417 32.295 20.6426 31.4432L11.2771 22.1844C10.4155 21.3326 10.4155 19.9253 11.2771 19.0364Z" fill="url(#paint1_linear_1435_1717)"/>
<path d="M19.3677 22.4435C19.3677 20.0362 19.8547 17.8881 20.8662 16.0364C21.8776 14.1476 23.2637 12.6662 25.0244 11.5922C26.7851 10.5182 28.7706 9.96265 31.0183 9.96265C33.2286 9.96265 35.2141 10.4811 36.9373 11.5552C38.6606 12.6292 40.0467 14.1106 41.0581 15.9623C42.0696 17.8141 42.5566 19.9991 42.5566 22.3694C42.5566 24.7767 42.0696 26.8877 41.0581 28.7765C40.0467 30.6652 38.698 32.1096 36.9373 33.1836C35.1766 34.2576 33.2286 34.8502 31.0183 34.8502C28.8081 34.8502 26.8226 34.3317 25.0244 33.2577C23.2637 32.1837 21.8776 30.7023 20.8662 28.8505C19.8921 26.9617 19.3677 24.8507 19.3677 22.4435ZM27.1223 22.4064C27.1223 23.1471 27.2721 23.7767 27.6093 24.3323C27.909 24.8878 28.3585 25.2952 28.9579 25.5914C29.5573 25.8877 30.2316 26.0359 31.0183 26.0359C31.805 26.0359 32.4794 25.8877 33.0787 25.5544C33.6781 25.2581 34.1277 24.8137 34.4274 24.2952C34.6896 23.7767 34.8395 23.1471 34.8395 22.4064C34.8395 21.7028 34.6896 21.0732 34.3525 20.5176C34.0153 19.9621 33.5658 19.5177 32.9664 19.2214C32.4044 18.8881 31.6927 18.74 30.9434 18.74C30.1942 18.74 29.5199 18.8881 28.9579 19.2214C28.3585 19.5177 27.909 19.9621 27.6093 20.5176C27.2721 21.0361 27.1223 21.6657 27.1223 22.4064Z" fill="white"/>
<path d="M76.6472 33.5911C74.0624 33.5911 71.8147 33.1096 69.8666 32.1467C67.9186 31.1838 66.3827 29.8505 65.2963 28.1099C64.2099 26.3692 63.6479 24.3694 63.6479 22.1472C63.6479 19.9251 64.1724 17.9623 65.2588 16.2216C66.3452 14.481 67.7688 13.1477 69.6419 12.1478C71.515 11.1478 73.6128 10.6664 75.9355 10.6664C78.2581 10.6664 80.2811 11.1478 82.0418 12.0737C83.8025 12.9996 85.1886 14.2958 86.2 15.9624C87.2115 17.629 87.6985 19.5178 87.6985 21.6658C87.6985 22.1102 87.6611 22.5917 87.6236 23.0731C87.5861 23.5546 87.4738 24.1471 87.3239 24.7767L67.3567 24.9249V19.5548L84.0273 19.4067L79.9439 21.7769C79.9439 20.5918 79.7941 19.6289 79.5318 18.8511C79.2696 18.0734 78.82 17.5179 78.2581 17.1475C77.6962 16.7772 76.9844 16.555 76.0853 16.555C75.1862 16.555 74.3995 16.7772 73.7627 17.2216C73.1258 17.666 72.6014 18.2956 72.2642 19.1474C71.927 19.9992 71.7397 20.9992 71.7397 22.1843C71.7397 23.4064 71.927 24.4064 72.3017 25.2212C72.6763 26.0359 73.2382 26.6655 73.95 27.0729C74.6618 27.4803 75.5608 27.7025 76.6472 27.7025C77.6962 27.7025 78.6327 27.5173 79.4194 27.184C80.2061 26.8507 80.9179 26.2952 81.5922 25.5545L86.0127 29.8505C84.8889 31.1097 83.5777 32.0356 82.0043 32.6652C80.4309 33.2948 78.6702 33.5911 76.6472 33.5911Z" fill="white"/>
<path d="M88.9351 33.0725V0.518677H97.7386V33.0355H88.9351V33.0725Z" fill="white"/>
<path d="M103.957 9.14801C102.683 9.14801 101.597 8.70358 100.735 7.85178C99.8735 6.96294 99.4614 5.88892 99.4614 4.62973C99.4614 3.37054 99.8735 2.29652 100.735 1.40768C101.597 0.518836 102.646 0.11145 103.957 0.11145C105.268 0.11145 106.354 0.555871 107.179 1.40768C108.003 2.25948 108.452 3.37054 108.452 4.62973C108.452 5.88892 108.04 6.96294 107.179 7.85178C106.354 8.70358 105.268 9.14801 103.957 9.14801ZM99.5364 33.0727V11.222H108.34V33.0727H99.5364Z" fill="white"/>
<path d="M110.175 42.4053V11.1848H118.979V16.5549L117.518 21.8509L118.717 27.1839V42.3683H110.175V42.4053ZM123.774 33.5169C122.463 33.5169 121.227 33.2947 120.028 32.8873C118.866 32.4429 117.855 31.8503 117.068 31.0726C116.282 30.2949 115.72 29.406 115.495 28.4061V16.2956C115.72 15.2957 116.244 14.3698 117.068 13.518C117.892 12.6662 118.866 11.9995 120.028 11.4811C121.189 10.9626 122.425 10.7404 123.774 10.7404C125.947 10.7404 127.857 11.2218 129.506 12.1847C131.154 13.1476 132.428 14.4809 133.327 16.2215C134.226 17.9622 134.713 19.9251 134.713 22.1472C134.713 24.3693 134.263 26.3321 133.327 28.0357C132.39 29.7393 131.154 31.0726 129.506 32.0725C127.895 33.0355 125.984 33.5169 123.774 33.5169ZM122.126 25.8507C122.837 25.8507 123.474 25.7025 124.074 25.3692C124.636 25.0359 125.085 24.5915 125.385 24.0359C125.685 23.4804 125.872 22.8508 125.872 22.1101C125.872 21.3694 125.722 20.7398 125.385 20.1843C125.085 19.6288 124.636 19.1843 124.074 18.8881C123.512 18.5548 122.875 18.4066 122.163 18.4066C121.451 18.4066 120.814 18.5548 120.253 18.8881C119.691 19.1843 119.279 19.6288 118.941 20.1843C118.604 20.7398 118.454 21.4065 118.454 22.1472C118.454 22.8508 118.604 23.4804 118.904 24.073C119.204 24.6285 119.616 25.0729 120.178 25.4062C120.777 25.7025 121.414 25.8507 122.126 25.8507Z" fill="white"/>
<path d="M148.91 33.5911C146.325 33.5911 144.077 33.1096 142.129 32.1467C140.181 31.1838 138.645 29.8505 137.559 28.1099C136.473 26.3692 135.911 24.3694 135.911 22.1472C135.911 19.9251 136.435 17.9623 137.522 16.2216C138.608 14.481 140.031 13.1477 141.905 12.1478C143.778 11.1478 145.876 10.6664 148.198 10.6664C150.521 10.6664 152.544 11.1478 154.304 12.0737C156.065 12.9996 157.451 14.2958 158.463 15.9624C159.474 17.629 159.961 19.5178 159.961 21.6658C159.961 22.1102 159.924 22.5917 159.886 23.0731C159.849 23.5546 159.736 24.1471 159.587 24.7767L139.619 24.9249V19.5548L156.29 19.4067L152.207 21.7769C152.207 20.5918 152.057 19.6289 151.795 18.8511C151.532 18.0734 151.083 17.5179 150.521 17.1475C149.959 16.7772 149.247 16.555 148.348 16.555C147.449 16.555 146.662 16.7772 146.025 17.2216C145.389 17.666 144.864 18.2956 144.527 19.1474C144.19 19.9992 144.002 20.9992 144.002 22.1843C144.002 23.4064 144.19 24.4064 144.564 25.2212C144.939 26.0359 145.501 26.6655 146.213 27.0729C146.924 27.4803 147.824 27.7025 148.91 27.7025C149.959 27.7025 150.895 27.5173 151.682 27.184C152.469 26.8507 153.218 26.2952 153.855 25.5545L158.275 29.8505C157.152 31.1097 155.84 32.0356 154.267 32.6652C152.731 33.2948 150.933 33.5911 148.91 33.5911Z" fill="white"/>
<path d="M50.8355 19.9992L46.6773 15.8883L35.7009 26.6655C34.8393 27.5173 34.8393 28.9246 35.7009 29.8135L38.2858 32.3689C39.1474 33.2207 40.571 33.2207 41.47 32.3689L50.8355 23.1101C51.6972 22.2583 51.6972 20.851 50.8355 19.9992Z" fill="#ED1844"/>
<path d="M56.9419 9.92564C56.9419 9.25901 57.1667 8.70348 57.5788 8.2961C57.9909 7.88871 58.5528 7.6665 59.2271 7.6665C59.6017 7.6665 59.9389 7.70353 60.276 7.81464C60.6132 7.92575 60.8754 8.07389 61.1002 8.33313L66.5322 2.96305C65.6706 2.07421 64.5842 1.37054 63.273 0.815015C61.9618 0.259489 60.4633 0.000244141 58.7776 0.000244141C56.5298 0.000244141 54.6193 0.4817 53.0084 1.40758C51.435 2.33345 50.1988 3.59264 49.3746 5.14812C48.5504 6.70359 48.1009 8.44424 48.1009 10.333V11.2219H43.6055V11.2959L48.2882 15.8883L52.4465 19.9992C52.896 20.4436 53.1208 20.9991 53.0833 21.5917C53.0833 22.1842 52.8586 22.7398 52.4465 23.1842L48.3257 27.2951L48.1758 27.4432V33.0725H56.9794V18.2956H63.0482V11.1848H56.9419V9.92564Z" fill="white"/>
<path d="M11.2761 22.2214L15.4344 26.3323L26.3733 15.518C27.2349 14.6662 27.2349 13.2589 26.3733 12.3701L23.8259 9.81464C22.9642 8.96283 21.5407 8.96283 20.6416 9.81464L11.2761 19.0734C10.4145 19.9622 10.4145 21.3325 11.2761 22.2214Z" fill="#ED1844"/>
<path d="M12.9617 9.14781C14.2729 9.14781 15.3593 8.70339 16.1835 7.85158C17.0076 6.96274 17.4572 5.88872 17.4572 4.62953C17.4572 3.37034 17.0451 2.29632 16.1835 1.40748C15.3593 0.518639 14.2729 0.0742188 12.9617 0.0742188C11.688 0.0742188 10.6016 0.518639 9.74001 1.37045C8.87839 2.25929 8.46631 3.3333 8.46631 4.62953C8.46631 5.88872 8.87839 6.96274 9.74001 7.85158C10.6016 8.70339 11.6506 9.14781 12.9617 9.14781Z" fill="white"/>
<path d="M13.9358 26.3322L9.74011 22.2213C9.29056 21.7768 9.06579 21.2213 9.06579 20.6288C9.06579 20.0362 9.29056 19.4807 9.70265 19.0362L12.2875 16.4808C12.325 16.4438 12.3624 16.4438 12.3999 16.4068L17.3449 11.5181V11.1848H8.54133V33.6281C8.54133 34.2947 8.39148 34.7391 8.12924 35.0354C7.82955 35.3317 7.41747 35.4798 6.93046 35.4798C6.70569 35.4798 6.44346 35.4428 6.18122 35.3317C5.91899 35.2206 5.65675 34.9984 5.35706 34.7021L0 39.9981C0.861625 40.961 1.91056 41.7017 3.18427 42.2572C4.45797 42.8128 5.84406 43.109 7.49239 43.109C9.51534 43.109 11.2386 42.7017 12.6996 41.8498C14.1606 41.0351 15.3219 39.887 16.1086 38.4426C16.9328 36.9983 17.3074 35.3317 17.3074 33.4799V29.7023L13.9358 26.3322Z" fill="white"/>
</g>
<defs>
<linearGradient id="paint0_linear_1435_1717" x1="35.9661" y1="13.0679" x2="51.0361" y2="24.393" gradientUnits="userSpaceOnUse">
<stop offset="0.0906" stop-color="#ED1844"/>
<stop offset="0.5971" stop-color="#840033"/>
</linearGradient>
<linearGradient id="paint1_linear_1435_1717" x1="24.4937" y1="30.1888" x2="10.1773" y2="14.0332" gradientUnits="userSpaceOnUse">
<stop stop-color="#ED1844"/>
<stop offset="0.5971" stop-color="#840033"/>
</linearGradient>
<clipPath id="clip0_1435_1717">
<rect width="160" height="43.1088" fill="white"/>
</clipPath>
</defs>
</svg>
