<svg width="18" height="18" viewBox="0 0 22 22" fill="none" xmlns="http://www.w3.org/2000/svg">
<path d="M17.5538 0H4.44344C1.988 0 0 1.98825 0 4.444V17.5588C0 20.0117 1.988 22 4.44344 22H17.5566C20.0092 22 22 20.0118 22 17.556V4.444C21.9972 1.98825 20.0093 0 17.5538 0Z" fill="url(#paint0_linear)"/>
<path d="M10.9054 5.0545L11.3508 4.2845C11.6258 3.80325 12.239 3.641 12.7202 3.916C13.2014 4.191 13.3636 4.80425 13.0886 5.2855L8.79641 12.716H11.9008C12.9071 12.716 13.4708 13.8985 13.0336 14.718H3.93227C3.37684 14.718 2.9314 14.2725 2.9314 13.717C2.9314 13.1615 3.37684 12.716 3.93227 12.716H6.48395L9.75054 7.05376L8.73042 5.28275C8.45545 4.8015 8.61768 4.19375 9.09887 3.91325C9.58006 3.63825 10.1877 3.8005 10.4682 4.28175L10.9054 5.0545ZM7.04488 15.7493L6.0825 17.4185C5.80754 17.8998 5.19436 18.062 4.71317 17.787C4.23198 17.512 4.06975 16.8988 4.34472 16.4175L5.05963 15.18C5.86803 14.9298 6.5252 15.1223 7.04488 15.7493ZM15.3323 12.7215H17.9363C18.4917 12.7215 18.9371 13.167 18.9371 13.7225C18.9371 14.278 18.4917 14.7235 17.9363 14.7235H16.4899L17.4661 16.4175C17.741 16.8988 17.5788 17.5065 17.0976 17.787C16.6164 18.062 16.0088 17.8998 15.7283 17.4185C14.084 14.5668 12.8494 12.4328 12.03 11.011C11.1914 9.56451 11.7908 8.11251 12.382 7.62026C13.0391 8.74776 14.0208 10.45 15.3323 12.7215Z" fill="white"/>
<defs>
<linearGradient id="paint0_linear" x1="10.9986" y1="0" x2="10.9986" y2="22" gradientUnits="userSpaceOnUse">
<stop stop-color="#0ED4FC"/>
<stop offset="1" stop-color="#0C57EF"/>
</linearGradient>
</defs>
</svg>
