<svg width="17" height="18" viewBox="0 0 21 22" fill="none" xmlns="http://www.w3.org/2000/svg">
<path d="M14.9963 14.3968C17.567 12.9716 19.5303 11.883 19.7089 11.7839C20.2416 11.4885 20.7998 10.7348 19.7089 10.1324C19.3583 9.93835 17.4478 8.88315 14.9933 7.52681L11.6174 10.9724L14.9963 14.3968Z" fill="#FFE300"/>
<path d="M11.6174 10.9724L0.820068 21.9925C1.0639 22.0238 1.35718 21.9584 1.69451 21.7714C2.39289 21.3842 9.89292 17.226 14.9965 14.3964L11.6174 10.9724Z" fill="#FF4E54"/>
<path d="M11.6173 10.9724L14.9932 7.52681C14.9932 7.52681 2.44561 0.592814 1.69443 0.177718C1.4057 0.0181177 1.0909 -0.0375804 0.812256 0.0252716L11.6173 10.9724Z" fill="#00F085"/>
<path d="M11.6173 10.9724L0.812055 0.0254364C0.365753 0.126272 0 0.517522 0 1.30394V20.6791C0 21.4197 0.287725 21.9405 0.81979 21.9925L11.6173 10.9724Z" fill="#00E0FF"/>
</svg>
